<svg width="274" height="484" viewBox="0 0 274 484" fill="none" xmlns="http://www.w3.org/2000/svg">
<path d="M191.574 233.413L136.459 233.546L81.3431 233.413C81.3431 233.413 57.2063 256.029 65.4547 313.007C73.703 369.986 111.182 627.832 111.182 627.832H135.166L136.459 513.514L137.751 627.832H161.755C161.755 627.832 199.234 369.967 207.463 313.007C215.692 256.048 191.574 233.413 191.574 233.413Z" fill="#CF7770"/>
<path d="M136.668 523.606C136.288 513.362 136.098 503.099 135.946 492.836C135.794 482.573 135.813 472.33 135.717 462.086C135.622 451.842 135.717 441.579 135.946 431.316L136.212 415.941C136.364 410.809 136.459 405.678 136.668 400.546C136.896 405.678 136.991 410.809 137.143 415.941L137.409 431.316C137.561 441.579 137.542 451.823 137.618 462.086C137.694 472.349 137.618 482.592 137.409 492.836C137.2 503.08 137.067 513.362 136.668 523.606Z" fill="#290920"/>
<path d="M149.021 63.1814H124.999V94.0082H149.021V63.1814Z" fill="#FA9778"/>
<path d="M149.021 68.4268V72.646C145.465 75.0182 141.285 76.2841 137.01 76.2841C132.735 76.2841 128.555 75.0182 124.999 72.646V68.4458C128.557 70.8132 132.736 72.0762 137.01 72.0762C141.284 72.0762 145.463 70.8132 149.021 68.4458V68.4268Z" fill="#290920"/>
<path d="M123.763 84.2776C123.763 84.2776 137.542 101.858 149.915 84.2776C149.915 84.2776 176.332 94.2554 181.806 95.1107C187.279 95.9659 191.65 123.068 191.65 133.331C191.65 143.593 192.354 233.413 192.354 233.413C192.354 233.413 117.586 241.015 81.3242 233.413C81.3242 233.413 78.9295 129.396 85.8285 108.738C85.8285 108.738 89.6296 95.1107 97.7639 93.0011C105.898 90.8915 118.841 92.0128 123.763 84.2776Z" fill="#FFDEB0"/>
<path d="M123.364 89.1048C125.472 91.0215 127.801 92.6803 130.301 94.0462C132.678 95.4024 135.357 96.1408 138.093 96.1938C138.731 96.2382 139.371 96.187 139.994 96.0418C140.643 95.9431 141.28 95.7776 141.894 95.5476L143.795 94.7874L145.524 93.6851C146.126 93.3383 146.682 92.9168 147.178 92.4308L148.793 91.0433C149.801 90.0361 150.694 88.9338 151.758 87.9075C151.074 89.1808 150.295 90.4162 149.497 91.7085L148.033 93.362C147.572 93.9562 147.028 94.4811 146.418 94.9205C144.089 96.9695 141.1 98.1099 137.998 98.1324C134.934 98.0826 131.955 97.1161 129.446 95.3576C127.02 93.7015 124.952 91.5752 123.364 89.1048Z" fill="#290920"/>
<path d="M6.21483 71.1448C4.16022 73.9344 3.03051 77.2972 2.98401 80.7615C3.23108 84.3155 7.81122 96.2509 7.81122 96.2509L22.2365 95.2437C22.2365 95.2437 19.9177 82.8711 17.8081 80.4954C15.6985 78.1198 11.4793 69.3203 6.21483 71.1448Z" fill="#FA9778"/>
<path d="M77.124 172.12C72.1066 165.83 67.2222 159.482 61.9197 153.362C60.0192 151.233 58.2515 149.105 56.484 146.938C54.2793 152.013 51.9798 157.486 49.6611 163.321C33.1074 126.412 23.1677 98.3795 21.4952 93.5901C21.4897 93.5142 21.4897 93.438 21.4952 93.362L21.324 92.8679L7.8302 96.2509C9.19859 135.098 20.5258 173.945 34.4378 207.661L34.6278 208.136C36.1211 211.626 38.6256 214.589 41.8184 216.643C45.0111 218.697 48.746 219.748 52.5414 219.66C56.3368 219.572 60.0189 218.349 63.1131 216.15C66.2073 213.95 68.5718 210.874 69.9019 207.318C70.0349 206.976 70.1679 206.634 70.2819 206.311C73.7599 196.808 77.504 187.306 81.4761 177.803C80.0317 175.845 78.5874 173.983 77.124 172.12Z" fill="#FA9778"/>
<path d="M97.7639 93.001C97.7639 93.001 80.9061 97.4863 74.1591 107.616C67.4122 117.746 51.3527 154.845 51.3527 154.845L74.9574 196.999C74.9574 196.999 121.654 117.48 97.7639 93.001Z" fill="#FFDEB0"/>
<path d="M54.9447 194.338C53.6333 189.225 52.588 184.075 51.5427 178.905C50.4974 173.736 49.6422 168.567 48.806 163.378C48.7871 163.257 48.7921 163.133 48.8211 163.014C48.85 162.895 48.9023 162.783 48.9747 162.684C49.0471 162.585 49.1383 162.502 49.2431 162.438C49.3479 162.375 49.4639 162.332 49.5851 162.314C49.7969 162.287 50.0116 162.333 50.1943 162.443C50.377 162.554 50.5172 162.722 50.5924 162.922C51.8658 166.495 53.1012 170.087 54.2605 173.698C54.8307 175.599 55.4579 177.309 55.9711 179.134C56.4842 180.958 57.0733 182.783 57.5675 184.626C56.7502 182.897 56.0091 181.148 55.2298 179.419C54.4506 177.689 53.7664 175.903 53.0442 174.154C51.5744 170.644 50.1805 167.109 48.8628 163.549L50.6304 163.093C51.5617 168.262 52.3788 173.451 53.1391 178.658C53.8993 183.866 54.5266 189.073 54.9447 194.338Z" fill="#290920"/>
<path d="M5.72075 21.8636L11.4224 16.9982C11.6271 16.8178 11.8907 16.7183 12.1636 16.7183C12.4365 16.7183 12.7001 16.8178 12.9048 16.9982L18.4733 21.8636C20.262 23.4279 21.6959 25.3561 22.6792 27.5194C23.6625 29.6826 24.1725 32.0309 24.1749 34.4071V54.1157C24.1749 55.5321 23.6123 56.8905 22.6108 57.892C21.6092 58.8936 20.2509 59.4562 18.8345 59.4562H5.34073C3.92434 59.4562 2.56579 58.8936 1.56425 57.892C0.562705 56.8905 0.000105842 55.5321 0.000105842 54.1157V34.4832C-0.00841996 32.0923 0.498228 29.7276 1.48537 27.55C2.4725 25.3724 3.91699 23.4329 5.72075 21.8636V21.8636Z" fill="#BDDBF2"/>
<path d="M12.0306 86.2541C11.747 86.2541 11.4661 86.1979 11.2043 86.0888C10.9425 85.9797 10.7049 85.8198 10.5052 85.6184C10.3056 85.4169 10.1478 85.1779 10.041 84.9152C9.93421 84.6524 9.88051 84.3711 9.88302 84.0875V39.3108C9.88048 39.028 9.93421 38.7476 10.0412 38.4859C10.1483 38.2242 10.3062 37.9865 10.5062 37.7865C10.7061 37.5866 10.9439 37.4285 11.2056 37.3215C11.4674 37.2145 11.7479 37.1606 12.0306 37.1632C12.3143 37.1607 12.5954 37.2144 12.8582 37.3212C13.1209 37.428 13.3599 37.5857 13.5614 37.7854C13.7628 37.9851 13.9228 38.2227 14.0319 38.4845C14.141 38.7463 14.1971 39.0271 14.1971 39.3108V84.0875C14.1971 84.6621 13.9689 85.2132 13.5625 85.6195C13.1562 86.0258 12.6053 86.2541 12.0306 86.2541Z" fill="#42A3E8"/>
<path d="M14.2731 68.8262H9.78788C8.95866 68.8262 8.28638 69.4984 8.28638 70.3276V89.0669C8.28638 89.8962 8.95866 90.5683 9.78788 90.5683H14.2731C15.1023 90.5683 15.7746 89.8962 15.7746 89.0669V70.3276C15.7746 69.4984 15.1023 68.8262 14.2731 68.8262Z" fill="#004B80"/>
<path d="M10.0159 65.177C10.0159 65.177 4.96059 63.5616 6.08191 66.9255C6.08191 66.9255 3.40203 68.541 5.72069 72.3421C5.22913 72.6292 4.81075 73.0262 4.49828 73.502C4.18581 73.9779 3.98779 74.5196 3.91967 75.0847C3.85156 75.6499 3.91526 76.2231 4.10574 76.7596C4.29621 77.296 4.60822 77.7811 5.0175 78.1768C5.0175 78.1768 9.93999 80.5524 11.0613 78.3098C12.1826 76.0671 9.16077 73.5964 9.16077 73.5964C9.16077 73.5964 12.1066 75.782 12.9619 74.5847C13.8171 73.3874 11.8974 69.3202 11.8974 69.3202C11.8974 69.3202 14.4252 69.6623 14.5773 68.0469C14.7293 66.4314 10.0159 65.177 10.0159 65.177Z" fill="#FA9778"/>
<path d="M18.8536 83.0232C18.8536 83.0232 17.5802 72.4752 14.7674 72.1902C13.1519 72.0381 13.3039 75.8772 13.722 79.1651C13.8031 79.7544 14.0012 80.3216 14.3045 80.8334C14.6078 81.3451 15.0102 81.7911 15.4882 82.1451C15.9662 82.4992 16.5101 82.7543 17.088 82.8953C17.666 83.0363 18.2662 83.0604 18.8536 82.9662V83.0232Z" fill="#FA9778"/>
<path d="M192.734 219.881L175.097 201.788L164.682 89.3518L154.571 85.4177L150.352 132.931H125.531L121.312 85.4177L111.182 89.3518L100.786 201.788L83.1486 219.881C80.4019 222.7 78.8554 226.474 78.8343 230.41L78.0172 397.429H197.865L197.048 230.41C197.027 226.474 195.48 222.7 192.734 219.881Z" fill="#FF4313"/>
<path d="M81.0771 390.569C90.2758 390.189 99.4554 389.998 108.635 389.846C117.815 389.694 127.013 389.694 136.193 389.618C145.372 389.542 154.571 389.618 163.751 389.846L177.53 390.113C182.129 390.265 186.728 390.36 191.308 390.569C186.728 390.797 182.129 390.873 177.53 391.044L163.751 391.31C154.571 391.462 145.391 391.443 136.193 391.519C126.994 391.595 117.834 391.519 108.635 391.291C99.4364 391.063 90.2758 390.968 81.0771 390.569Z" fill="#582949"/>
<path d="M147.045 190.119C146.813 179.766 144.707 169.54 140.83 159.938C138.83 155.144 136.231 150.623 133.095 146.482C129.864 142.38 126.017 138.802 121.692 135.877L122.224 135.003C126.808 137.796 130.925 141.291 134.425 145.361C137.892 149.478 140.811 154.027 143.111 158.893C145.384 163.78 147.191 168.87 148.508 174.097C149.855 179.348 150.72 184.711 151.093 190.119H147.045Z" fill="#56B19A"/>
<path d="M168.863 141.256C167.365 142.902 166.023 144.683 164.853 146.577C162.434 150.572 160.422 154.8 158.847 159.197C157.232 163.555 155.849 167.996 154.704 172.5C153.526 177.024 152.537 181.509 151.739 186.184L156.718 186.793C157.137 182.364 157.802 177.822 158.619 173.375C159.417 168.889 160.451 164.448 161.717 160.071C162.923 155.723 164.566 151.507 166.62 147.489C167.579 145.621 168.718 143.852 170.022 142.206C169.613 141.918 169.225 141.601 168.863 141.256V141.256Z" fill="#56B19A"/>
<path d="M169.623 181.186H131.974C130.767 181.186 129.788 182.165 129.788 183.372V189.415C129.788 190.622 130.767 191.601 131.974 191.601H169.623C170.83 191.601 171.809 190.622 171.809 189.415V183.372C171.809 182.165 170.83 181.186 169.623 181.186Z" fill="white"/>
<path d="M166.829 185.823H134.805C133.745 185.823 132.886 186.683 132.886 187.743V213.59C132.886 214.65 133.745 215.51 134.805 215.51H166.829C167.89 215.51 168.749 214.65 168.749 213.59V187.743C168.749 186.683 167.89 185.823 166.829 185.823Z" fill="white"/>
<path d="M123.44 136.086C123.44 136.086 106.088 115.18 97.8587 120.008C89.6294 124.835 116.75 136.086 123.44 136.086Z" fill="#56B19A"/>
<path d="M128.838 141.351C128.838 141.351 122.661 118.088 130.491 116.549C138.321 115.009 128.838 141.351 128.838 141.351Z" fill="#56B19A"/>
<path d="M129.75 141.218C129.75 141.218 102.952 140.248 103.142 148.421C103.389 158.95 129.75 141.218 129.75 141.218Z" fill="#56B19A"/>
<path d="M136.668 149.58C136.668 149.58 127.678 128.674 139.234 122.326C145.144 119.114 136.668 149.58 136.668 149.58Z" fill="#56B19A"/>
<path d="M136.421 148.288C136.421 148.288 111.22 152.279 112.379 158.703C113.538 165.126 130.757 162.162 136.421 148.288Z" fill="#56B19A"/>
<path d="M141.932 158.95C141.932 158.95 142.578 129.529 148.242 130.936C153.906 132.342 148.622 152.792 141.932 158.95Z" fill="#56B19A"/>
<path d="M144.118 164.993C144.118 164.993 120.855 165.773 121.502 173.603C122.148 181.433 144.118 164.993 144.118 164.993Z" fill="#56B19A"/>
<path d="M145.923 171.417C145.923 171.417 145.277 153.039 151.625 151.499C157.973 149.96 145.923 171.417 145.923 171.417Z" fill="#56B19A"/>
<path d="M166.487 146.368C166.487 146.368 181.691 139.545 186.671 143.783C191.65 148.022 169.186 148.554 166.487 146.368Z" fill="#56B19A"/>
<path d="M162.496 153.818C162.496 153.818 183.193 146.482 186.538 151.5C189.883 156.517 168.027 158.304 162.496 153.818Z" fill="#56B19A"/>
<path d="M166.487 146.102C166.487 146.102 168.388 131.449 161.337 128.75C154.286 126.051 159.93 144.563 166.487 146.102Z" fill="#56B19A"/>
<path d="M162.496 153.818C162.496 153.818 158.695 138.785 153.754 139.545C148.812 140.305 157.745 154.845 162.496 153.818Z" fill="#56B19A"/>
<path d="M157.365 169.745C157.365 169.745 175.743 155.091 183.326 161.401C190.909 167.711 162.249 171.284 157.365 169.745Z" fill="#56B19A"/>
<path d="M134.292 190.537C144.548 189.27 154.92 189.27 165.176 190.537C160.061 191.223 154.904 191.54 149.744 191.487C144.577 191.53 139.414 191.213 134.292 190.537V190.537Z" fill="#290920"/>
<path d="M268.489 166.096L268.261 165.849C255.699 151.918 243.288 139.773 232.322 129.738L207.615 154.445C216.129 162.047 224.416 169.65 232.322 177.461C198.454 187.838 175.306 193.045 175.306 193.045L177.206 206.862C203.514 208.489 229.921 206.571 255.718 201.161L257.067 200.894C260.702 200.137 264.074 198.435 266.842 195.96C269.61 193.485 271.677 190.324 272.835 186.796C273.993 183.268 274.201 179.497 273.438 175.863C272.675 172.229 270.968 168.86 268.489 166.096V166.096Z" fill="#FA9778"/>
<path d="M177.719 206.672C177.719 206.672 158.847 214.274 152.537 212.849C151.131 212.545 153.506 210.948 157.003 209.447C157.003 209.447 147.235 210.511 146.075 210.093C144.916 209.675 158.657 205.152 158.657 205.152C158.657 205.152 143.453 207.565 142.711 206.406C141.97 205.247 156.205 201.598 156.205 201.598C156.205 201.598 144.004 203.498 143.32 202.282C142.635 201.065 159.512 197.036 159.512 197.036C159.512 197.036 153.811 192.798 155.464 191.639C157.118 190.479 164.035 192.285 166.582 193.387C169.129 194.49 179.411 192.342 179.411 192.342L177.719 206.672Z" fill="#FA9778"/>
<path d="M170.859 91.8796H170.573V128.883C185.094 145.304 207.938 165.716 213.583 163.264C222.002 159.615 244.219 139.659 244.219 139.659C209.573 96.9351 170.859 91.8796 170.859 91.8796Z" fill="#FFDEB0"/>
<path d="M248.325 178.658C246.918 178.81 245.493 178.81 244.086 178.905H239.848C237.036 178.905 234.147 178.772 231.41 178.62C231.163 178.601 230.933 178.488 230.766 178.304C230.6 178.12 230.511 177.88 230.517 177.632C230.527 177.444 230.592 177.263 230.703 177.111C230.814 176.959 230.967 176.843 231.144 176.777C236.106 174.925 241.185 173.401 246.348 172.216C241.613 174.646 236.724 176.767 231.714 178.563L231.448 176.663C234.261 176.834 237.149 177.043 239.867 177.347C241.274 177.48 242.661 177.67 244.067 177.86C245.474 178.05 246.937 178.297 248.325 178.658Z" fill="#290920"/>
<path d="M162.059 37.8283C160.935 37.5975 159.771 37.6564 158.676 37.9993V32.7728C158.676 27.0266 156.393 21.5158 152.33 17.4526C148.267 13.3894 142.756 11.1067 137.01 11.1067C134.164 11.1042 131.345 11.6629 128.716 12.7508C126.086 13.8388 123.697 15.4346 121.684 17.447C119.672 19.4594 118.076 21.8488 116.988 24.4786C115.9 27.1084 115.341 29.9269 115.344 32.7728V37.9993C114.219 37.6459 113.021 37.5917 111.869 37.8421C110.717 38.0925 109.65 38.6389 108.773 39.4274C107.896 40.2159 107.24 41.2193 106.869 42.3386C106.498 43.4579 106.426 44.6546 106.658 45.8105C107.399 49.4786 111.6 54.9331 115.268 54.1919C115.406 54.165 115.54 54.1203 115.667 54.0589C116.528 59.0952 119.143 63.6646 123.049 66.9585C126.955 70.2523 131.9 72.0584 137.01 72.057V72.057C142.116 72.0539 147.057 70.2458 150.959 66.9523C154.861 63.6589 157.473 59.092 158.334 54.0589C158.468 54.1177 158.608 54.1622 158.752 54.1919C162.42 54.9331 166.62 49.4786 167.362 45.8105C167.715 44.0491 167.355 42.2196 166.36 40.7232C165.366 39.2269 163.82 38.1858 162.059 37.8283Z" fill="#FA9778"/>
<path d="M109.433 42.3898C110.172 42.2281 110.937 42.2281 111.676 42.3898C112.434 42.5219 113.159 42.8064 113.804 43.226C114.471 43.6618 115.004 44.2736 115.344 44.9935C115.684 45.6888 115.803 46.4712 115.686 47.2362C115.436 46.5607 115.097 45.9215 114.679 45.3356C114.275 44.821 113.794 44.3722 113.253 44.0052C112.056 43.3018 110.772 42.7586 109.433 42.3898Z" fill="#290920"/>
<path d="M112.208 49.6688C111.853 49.1984 111.612 48.6518 111.505 48.0723C111.381 47.4768 111.381 46.8623 111.505 46.2668C111.658 45.6517 111.98 45.092 112.436 44.6514C112.88 44.2362 113.447 43.9761 114.051 43.9102C113.665 44.2848 113.327 44.7062 113.044 45.1645C112.798 45.5794 112.612 46.0274 112.493 46.4949C112.295 47.541 112.199 48.6041 112.208 49.6688V49.6688Z" fill="#290920"/>
<path d="M164.53 42.3897C163.196 42.7644 161.918 43.314 160.729 44.0242C160.182 44.3908 159.694 44.8395 159.284 45.3546C158.873 45.9451 158.535 46.5832 158.277 47.2551C158.172 46.4902 158.29 45.7112 158.619 45.0124C158.965 44.2962 159.496 43.6859 160.158 43.245C160.81 42.8229 161.541 42.5384 162.306 42.4087C163.037 42.2405 163.796 42.2341 164.53 42.3897V42.3897Z" fill="#290920"/>
<path d="M161.755 49.6688C161.764 48.6041 161.668 47.541 161.47 46.4949C161.357 46.0282 161.178 45.5801 160.938 45.1645C160.642 44.7103 160.298 44.2897 159.911 43.9102C160.517 43.972 161.085 44.2327 161.527 44.6514C161.988 45.0873 162.312 45.6489 162.458 46.2668C162.591 46.8613 162.591 47.4779 162.458 48.0723C162.356 48.6535 162.115 49.2013 161.755 49.6688Z" fill="#290920"/>
<path d="M153.887 52.6145C153.887 53.7421 153.553 54.8445 152.926 55.7821C152.3 56.7198 151.409 57.4505 150.367 57.8821C149.325 58.3136 148.179 58.4265 147.073 58.2065C145.967 57.9865 144.951 57.4435 144.154 56.6461C143.356 55.8487 142.813 54.8328 142.593 53.7268C142.373 52.6208 142.486 51.4744 142.918 50.4326C143.349 49.3907 144.08 48.5003 145.018 47.8738C145.955 47.2473 147.057 46.9128 148.185 46.9128C149.697 46.9128 151.148 47.5135 152.217 48.5828C153.286 49.6521 153.887 51.1023 153.887 52.6145Z" fill="#FA7C55"/>
<path d="M131.346 52.6145C131.346 53.7421 131.012 54.8445 130.385 55.7821C129.759 56.7198 128.868 57.4505 127.827 57.8821C126.785 58.3136 125.639 58.4265 124.533 58.2065C123.426 57.9865 122.41 57.4435 121.613 56.6461C120.816 55.8487 120.273 54.8328 120.053 53.7268C119.833 52.6208 119.946 51.4744 120.377 50.4326C120.809 49.3907 121.54 48.5003 122.477 47.8738C123.415 47.2473 124.517 46.9128 125.645 46.9128C127.157 46.9128 128.607 47.5135 129.676 48.5828C130.746 49.6521 131.346 51.1023 131.346 52.6145Z" fill="#FA7C55"/>
<path d="M131.46 52.8616C133.052 53.7718 134.81 54.3534 136.63 54.572C137.492 54.637 138.357 54.5004 139.157 54.1729C140.023 53.8335 140.846 53.3933 141.609 52.8616C141.155 53.769 140.458 54.5323 139.595 55.0662C138.689 55.6391 137.623 55.9056 136.554 55.8264C135.537 55.7457 134.551 55.4373 133.67 54.9241C132.788 54.4109 132.033 53.706 131.46 52.8616V52.8616Z" fill="#290920"/>
<path d="M136.44 38.7217C136.632 39.7963 136.759 40.8816 136.82 41.9716C136.895 42.5457 136.895 43.127 136.82 43.7011C136.685 44.287 136.44 44.8418 136.097 45.3355C135.489 46.2668 134.615 47.0651 134.596 47.8443C134.577 48.6235 135.565 49.4977 136.497 49.9729C135.898 49.9495 135.321 49.7416 134.844 49.3776C134.368 49.0136 134.016 48.5112 133.836 47.9393C133.787 47.6056 133.806 47.2655 133.891 46.9391C133.976 46.6127 134.125 46.3066 134.33 46.0388C134.634 45.5636 134.976 45.1265 135.261 44.7084C135.818 43.8749 136.122 42.8979 136.136 41.8956C136.183 40.8332 136.285 39.7739 136.44 38.7217V38.7217Z" fill="#290920"/>
<path d="M121.958 36.384C122.584 35.6127 123.352 34.9677 124.219 34.4834C125.084 33.9628 126.038 33.6082 127.032 33.4381C129.003 33.0201 131.057 33.2954 132.848 34.2173C133.078 34.3327 133.259 34.5277 133.357 34.7662C133.454 35.0047 133.462 35.2705 133.378 35.5143C133.295 35.758 133.126 35.9632 132.902 36.0917C132.679 36.2201 132.416 36.2632 132.164 36.2129C131.346 36.0609 130.567 35.8898 129.788 35.7948C129.008 35.6774 128.218 35.6456 127.431 35.6998C125.832 35.8318 124.293 36.3752 122.965 37.2772V37.2772C122.826 37.3741 122.654 37.4124 122.487 37.384C122.32 37.3555 122.171 37.2626 122.072 37.1252C121.975 37.0304 121.912 36.907 121.892 36.7735C121.871 36.6399 121.894 36.5033 121.958 36.384V36.384Z" fill="#3C0525"/>
<path d="M128.99 45.4874C130.333 45.4874 131.422 44.3983 131.422 43.0548C131.422 41.7112 130.333 40.6221 128.99 40.6221C127.646 40.6221 126.557 41.7112 126.557 43.0548C126.557 44.3983 127.646 45.4874 128.99 45.4874Z" fill="#3C0525"/>
<path d="M150.181 37.2391C149.512 36.7919 148.79 36.4282 148.033 36.1558C147.283 35.8971 146.505 35.7311 145.714 35.6617C144.934 35.6078 144.15 35.6397 143.377 35.7567C142.598 35.8517 141.818 36.0228 140.982 36.1748C140.729 36.2252 140.467 36.1821 140.243 36.0536C140.02 35.9251 139.851 35.72 139.767 35.4762C139.684 35.2324 139.692 34.9666 139.789 34.7281C139.887 34.4896 140.067 34.2946 140.298 34.1793C142.088 33.2558 144.143 32.9805 146.113 33.4C147.101 33.5737 148.048 33.9281 148.907 34.4453C149.785 34.9228 150.56 35.5686 151.188 36.3459C151.271 36.4683 151.309 36.6154 151.297 36.7627C151.284 36.9099 151.222 37.0485 151.119 37.1552C151.017 37.2619 150.881 37.3303 150.735 37.3491C150.588 37.3678 150.439 37.3357 150.314 37.2581L150.181 37.2391Z" fill="#3C0525"/>
<path d="M141.666 43.0548C141.666 43.5359 141.809 44.0062 142.076 44.4063C142.344 44.8064 142.723 45.1182 143.168 45.3023C143.613 45.4864 144.102 45.5346 144.573 45.4407C145.045 45.3468 145.479 45.1152 145.819 44.7749C146.159 44.4347 146.391 44.0013 146.485 43.5294C146.579 43.0575 146.531 42.5683 146.346 42.1238C146.162 41.6793 145.85 41.2994 145.45 41.0321C145.05 40.7648 144.58 40.6221 144.099 40.6221C143.454 40.6221 142.835 40.8784 142.379 41.3346C141.923 41.7908 141.666 42.4096 141.666 43.0548Z" fill="#3C0525"/>
<path d="M120.532 32.2786C120.532 32.2786 120.114 41.7813 118.632 41.9714C117.149 42.1614 115.534 38.4744 115.534 38.4744C112.151 36.5738 108.369 39.7287 108.369 39.7287C102.876 29.8839 107.38 23.7072 107.38 23.7072C107.38 23.7072 102.325 7.11548 118.632 1.22381C134.938 -4.66786 160.938 12.627 160.938 12.627C169.509 18.9558 166.639 41.1351 166.639 41.1351C165.825 39.8312 164.614 38.8229 163.184 38.2585C161.754 37.694 160.18 37.6031 158.695 37.9992C158.695 37.9992 156.376 43.7009 154.4 43.1117C152.423 42.5225 152.993 33.3999 152.993 33.3999C152.993 33.3999 138.53 32.9818 130.377 26.653L120.532 32.2786Z" fill="#3C0525"/>
</svg>
