<svg width="375" height="484" viewBox="0 0 375 484" fill="none" xmlns="http://www.w3.org/2000/svg">
<path d="M335.905 115C331.405 126 335.305 138.8 343.105 147.1C348.705 153.1 361.405 162.6 370.505 161C371.705 160.8 372.805 160.4 373.805 159.8C380.105 156.1 381.005 145.8 379.205 139.5C377.305 132.6 371.705 127 364.905 125C360.305 123.6 354.505 123.4 352.305 119.1C350.705 115.9 351.705 111.5 349.405 108.8C348.305 107.6 346.705 107 345.105 107C343.805 107 342.505 107.4 341.405 108C338.805 109.5 337.105 112.2 335.905 115Z" fill="#7175DA"/>
<path d="M335.905 115C331.405 126 335.305 138.8 343.105 147.1C348.705 153.1 361.405 162.6 370.505 161C371.705 160.8 372.805 160.4 373.805 159.8C380.105 156.1 381.005 145.8 379.205 139.5C377.305 132.6 371.705 127 364.905 125C360.305 123.6 354.505 123.4 352.305 119.1C350.705 115.9 351.705 111.5 349.405 108.8C348.305 107.6 346.705 107 345.105 107C343.805 107 342.505 107.4 341.405 108C338.805 109.5 337.105 112.2 335.905 115Z" fill="#008B8C"/>
<path opacity="0.2" d="M345.197 107C343.897 110.1 343.697 113.6 344.397 116.8C345.297 121 347.497 124.8 350.197 128C352.897 131.2 356.097 134 359.297 136.8C362.397 139.6 365.597 142.5 367.997 146C369.597 148.3 370.897 150.7 371.897 153.3C372.597 155.2 372.697 158.2 373.997 159.8C380.297 156.1 381.197 145.8 379.397 139.5C377.497 132.6 371.897 127 365.097 125C360.497 123.6 354.697 123.4 352.497 119.1C350.897 115.9 351.897 111.5 349.597 108.8C348.497 107.6 346.897 107 345.197 107Z" fill="#4EAE99"/>
<path d="M355.205 133.3C364.805 139.8 371.605 150.4 373.605 162.1" stroke="#89C6BD" stroke-miterlimit="10" stroke-linecap="round" stroke-linejoin="round"/>
<path d="M318.894 157.375C315.239 154.181 313.047 149.824 311 145.468C313.924 146.92 317.286 147.646 320.502 148.518C324.741 149.679 335.558 153.164 333.365 159.553C333.365 159.698 333.219 159.698 333.219 159.843C336.435 161.731 339.651 163.764 342.721 165.942C341.113 162.602 343.159 155.923 344.329 153.6C346.522 149.389 350.322 146.194 353.977 143C353.246 146.194 353.392 149.534 353.392 152.874C353.392 157.23 352.661 168.556 345.791 167.975C345.645 167.975 345.644 167.975 345.498 167.975C349.299 170.879 353.1 173.928 356.608 177.268C355 173.928 356.9 167.249 358.216 164.78C360.409 160.569 364.209 157.375 367.864 154.181C367.133 157.375 367.279 160.715 367.279 164.054C367.279 168.41 366.548 179.736 359.678 179.155C359.239 179.155 358.801 179.01 358.362 178.865C361.724 182.205 365.086 185.689 368.156 189.319C366.987 185.835 368.887 179.736 370.056 177.413C372.249 173.202 376.05 170.008 379.704 166.813C378.973 170.008 379.12 173.347 379.12 176.687C379.12 181.043 378.389 192.369 371.518 191.788C370.934 191.788 370.495 191.643 370.056 191.352C372.98 194.982 375.757 198.903 378.389 202.823C377.219 199.338 379.12 193.24 380.289 191.062C382.482 186.851 386.282 183.657 389.937 180.462C389.206 183.657 389.352 186.996 389.352 190.336C389.352 194.692 388.621 206.018 381.751 205.437C380.874 205.437 380.143 205.146 379.704 204.711C389.791 220.828 396.515 239.124 399 257.855L397.977 258C395.638 239.559 389.06 221.7 379.12 205.872C379.12 206.163 378.973 206.453 378.973 206.889C376.927 213.423 366.11 209.938 362.017 208.341C358.947 207.179 355.877 205.872 352.515 205.292C356.754 203.114 361.14 200.79 365.963 200.355C368.302 200.064 373.711 200.5 376.927 202.388C374.734 199.048 372.249 195.708 369.764 192.514C369.764 192.949 369.764 193.385 369.618 193.821C367.571 200.355 356.754 196.87 352.661 195.273C349.591 194.111 346.522 192.804 343.159 192.223C347.399 190.045 351.784 187.722 356.608 187.287C358.801 186.996 363.625 187.432 366.841 188.884C364.063 185.544 360.993 182.35 357.777 179.301C357.924 179.881 357.924 180.607 357.777 181.479C355.731 188.013 344.914 184.528 340.821 182.931C337.751 181.769 334.681 180.462 331.319 179.881C335.558 177.703 339.943 175.38 344.767 174.944C346.814 174.799 351.492 175.09 354.708 176.396C351.492 173.492 348.13 170.734 344.621 168.12C345.06 168.846 345.06 169.717 344.767 170.879C342.721 177.413 331.904 173.928 327.811 172.331C324.741 171.169 321.671 169.862 318.309 169.282C322.548 167.104 326.934 164.78 331.757 164.345C333.658 164.199 337.605 164.345 340.674 165.506C338.189 163.909 335.704 162.312 333.219 160.86C329.857 164.49 321.525 159.698 318.894 157.375Z" fill="url(#paint0_linear_0_1)"/>
<path d="M-18.5336 474.547C-14.3948 484.279 10.8855 471.639 16.3666 467.724C17.8208 466.717 19.275 465.486 20.6173 464.368C21.2884 463.808 21.8477 463.249 22.407 462.69C25.0917 460.229 27.6644 457.432 30.2372 454.636C30.6847 454.189 31.1321 453.629 31.5795 453.182C34.1523 450.273 36.7251 447.365 39.4097 444.569C39.969 444.009 40.5283 443.45 41.0876 442.891C42.0944 441.884 43.1011 440.877 44.2197 439.87C45.4501 438.752 46.6806 437.633 48.0229 436.627C48.5822 436.067 49.2534 435.62 49.9245 435.172C52.1617 433.383 54.3989 431.817 56.748 430.251C57.4191 429.803 57.9784 429.356 58.6496 429.02C61.1105 427.454 63.5714 425.888 66.0323 424.322L67.4865 423.427C70.7305 421.414 73.9744 419.4 77.2183 417.387C77.6658 417.163 78.1132 416.827 78.5606 416.604C79.6792 415.821 80.9097 415.038 82.0283 414.366C94.6684 405.865 106.637 394.903 111 380.361C103.953 392.666 91.0889 401.391 77.1065 403.18C69.8356 404.187 62.341 403.404 55.4057 405.865C47.5755 408.55 41.6469 414.814 35.0472 419.624C24.5324 427.23 17.9326 421.078 5.85179 425.552C-15.7371 433.494 -8.24254 449.043 -11.7102 454.972C-14.7304 459.11 -20.7708 469.29 -18.5336 474.547Z" fill="url(#paint1_linear_0_1)"/>
<path opacity="0.37" d="M65.6967 424.21C65.2493 422.42 65.2493 418.282 65.2493 417.61C65.473 414.59 66.4797 412.129 67.3746 409.221C66.4797 412.241 66.1441 415.485 66.4797 418.617C66.4797 419.065 67.1509 421.526 67.1509 423.203L65.6967 424.21Z" fill="#FFF7FB"/>
<path opacity="0.37" d="M78.2251 416.492C78.2251 416.268 78.1132 416.156 78.1132 416.044C77.7776 412.912 78.1132 409.668 79.0081 406.648C78.1132 409.445 77.1065 412.017 76.9946 415.038C76.9946 415.373 76.9946 416.268 76.9946 417.387C77.3302 417.051 77.7776 416.716 78.2251 416.492Z" fill="#FFF7FB"/>
<path opacity="0.37" d="M58.3141 428.908C58.0904 427.119 57.643 425.329 57.643 424.881C57.3074 421.078 57.643 417.163 58.6497 413.583C57.643 417.051 56.4125 419.96 56.1888 423.651C56.1888 424.322 56.0769 427.79 56.4125 430.251C57.0837 429.691 57.7548 429.356 58.3141 428.908Z" fill="#FFF7FB"/>
<path opacity="0.37" d="M47.7992 436.515C48.3585 435.956 49.0296 435.508 49.7008 435.061C49.4771 433.271 49.0296 431.481 49.0296 431.034C48.5822 427.23 49.0296 423.315 50.0364 419.736C49.0296 423.203 47.7992 426.112 47.5754 429.803C47.4636 430.363 47.4636 434.054 47.7992 436.515Z" fill="#FFF7FB"/>
<path opacity="0.37" d="M39.2977 444.569C39.857 444.009 40.4163 443.45 40.9756 442.891C40.9756 440.877 40.1926 438.193 40.1926 437.633C39.857 433.83 40.1926 429.915 41.1993 426.335C40.1926 429.803 38.9622 432.711 38.7384 436.403C38.6266 437.186 38.6266 442.443 39.2977 444.569Z" fill="#FFF7FB"/>
<path opacity="0.37" d="M30.2373 454.636C29.2306 453.406 29.3424 446.694 29.3424 445.799C29.5662 442.22 30.7966 439.199 31.8034 435.732C30.6848 439.423 30.3492 443.226 30.7966 447.03C30.9085 447.589 31.8034 451.056 31.5796 453.182L30.2373 454.636Z" fill="#FFF7FB"/>
<path opacity="0.37" d="M20.6173 464.256C19.7224 462.131 19.7224 455.195 19.8343 454.077C20.058 449.714 21.624 446.247 22.8545 442.22C21.5121 446.582 21.1766 451.169 21.624 455.643C21.7359 456.314 22.6307 460.117 22.5189 462.578L20.6173 464.256Z" fill="#FFF7FB"/>
<path d="M-52.1054 497C-46.4691 483.793 -39.8487 471.036 -32.3336 458.818C-32.2441 458.728 -32.1547 458.638 -32.0652 458.548C-32.1547 459.087 -32.2441 458.009 -32.0652 458.548C-27.2341 456.032 -22.403 459.357 -17.3035 460.165C-10.2358 461.243 -2.72074 459.357 3.00502 454.954C8.73077 450.642 12.6672 443.904 13.6513 436.806C10.1622 441.029 4.52592 442.826 -0.841972 443.724C-6.20987 444.623 -11.8462 444.713 -17.0351 446.419C-19.5401 447.228 -25.1764 450.103 -28.755 453.517C-28.6656 453.337 -28.5761 453.068 -28.4866 452.888C-26.3395 449.564 -24.1923 446.33 -21.8662 443.095C-16.8562 435.908 -11.4883 428.99 -5.85201 422.342C-8.80435 429.709 6.76254 430.607 12.9356 428.002C19.6455 425.127 25.0134 419.198 27.25 412.19C17.9456 416.682 7.65719 410.573 -0.931435 416.682C2.82609 412.46 6.67308 408.327 10.699 404.374C10.699 404.554 10.7885 404.643 10.7885 404.823C11.6831 406.979 18.9298 405.632 20.7191 405.272C28.7709 403.925 33.1547 399.522 39.5067 395.21C36.3754 397.276 32.439 397.546 28.6814 397.456C24.9239 397.366 21.0769 397.007 17.4983 398.085C17.2299 398.175 16.9615 398.265 16.6037 398.444C19.1982 395.929 21.8821 393.503 24.5661 391.167C24.9239 391.437 25.3712 391.706 25.8186 391.886C31.9916 394.581 40.8487 386.945 44.4273 382.722C48.4532 378.05 51.2266 372.48 54 367C49.9741 369.605 45.2324 370.773 40.5803 372.031C35.9281 373.289 31.2759 374.816 27.6079 377.961C24.5661 380.656 21.0769 387.035 23.8503 390.449C20.2717 393.593 16.6931 396.917 13.2935 400.241C13.5619 399.792 13.7408 399.253 14.0092 398.624C16.3353 391.886 16.9615 384.16 16.8721 377.062C16.8721 376.164 16.5142 373.828 16.5142 373.828C16.5142 373.828 14.4565 375.176 13.9197 375.625C10.8779 378.41 7.74666 381.195 5.51004 384.609C3.27341 388.023 1.93144 392.335 2.73662 396.378C3.8102 401.319 7.3888 404.194 10.4306 403.026C1.93144 411.561 -6.1204 420.545 -13.546 430.068C-13.3671 429.709 -13.0987 429.35 -12.9197 429.08C-11.3094 426.924 -9.52007 424.858 -7.99916 422.612C-0.841972 411.831 -0.841972 396.737 -7.9097 385.956C-7.10451 387.124 -11.4883 397.276 -12.0251 399.073C-13.2776 403.655 -14.4406 408.237 -15.5142 412.909C-16.5878 417.67 -17.393 422.432 -18.1982 427.193C-18.3771 428.631 -19.9875 435.728 -18.2876 436.178C-19.8085 438.244 -21.3294 440.31 -22.7609 442.377C-24.0134 444.173 -25.2659 445.97 -26.4289 447.767C-24.3712 442.287 -24.0134 436.447 -23.8344 430.518C-23.6555 424.049 -23.3871 417.581 -23.2082 411.202C-23.2082 410.214 -23.4766 400.511 -23.4766 400.511C-23.4766 400.511 -28.2182 409.854 -28.6656 410.753C-34.3018 420.366 -37.5226 431.416 -37.9699 442.556C-38.1488 446.689 -39.1329 455.673 -35.4649 458.638C-34.8386 459.177 -34.2124 459.357 -33.6756 459.357C-41.1012 471.395 -47.5426 483.883 -53 496.641L-52.1054 497Z" fill="url(#paint2_linear_0_1)"/>
<path d="M-18.8695 484.279C-18.8695 477.791 -18.5339 466.717 -11.0393 460.788C1.26525 451.057 18.6035 453.629 28.4472 457.768C36.0536 461.012 35.1588 463.585 41.8703 465.263C53.6156 468.171 60.7746 461.46 67.9337 466.046C70.9539 467.947 74.6452 472.198 73.8622 476.113C70.842 490.767 44.6668 496.472 21.4 495.8C3.6143 495.353 -10.3682 489.089 -18.8695 484.279Z" fill="url(#paint3_linear_0_1)"/>
<path d="M73.8624 476.113C70.8422 490.767 44.667 496.472 21.4002 495.8C3.6145 495.353 -10.2561 489.089 -18.7574 484.279C-18.7574 483.831 -18.7574 483.272 -18.7574 482.713C-18.6456 476.113 -17.8626 466.269 -10.9273 460.9C1.48917 451.168 18.7156 453.741 28.5592 457.88C36.1657 461.124 35.2708 463.697 41.9824 465.375C53.7277 468.283 60.8867 461.571 68.0457 466.158C68.2694 466.269 68.605 466.493 68.8287 466.717C71.5134 468.73 74.5336 472.534 73.8624 476.113Z" fill="#008B8C"/>
<path opacity="0.2" d="M68.7167 466.605C66.5913 470.632 62.9 473.764 58.873 476.001C48.9175 481.482 36.3892 482.042 26.0981 477.344C23.0779 476.001 10.4377 471.303 6.9701 471.303C3.27873 471.303 -0.412649 471.974 -3.99216 473.093C-9.58515 474.995 -14.8426 478.239 -18.8695 482.601C-18.7576 476.001 -17.9746 466.158 -11.0393 460.788C1.37711 451.057 18.6035 453.629 28.4472 457.768C36.0536 461.012 35.1588 463.585 41.8703 465.263C53.6156 468.171 60.7746 461.46 67.9337 466.046C68.1574 466.158 68.3811 466.381 68.7167 466.605Z" fill="#80BEAE"/>
<path d="M28.7828 479.021C26.5456 477.567 10.3259 467.724 -7.45977 473.988C-24.798 480.14 -32.7401 512.244 -34.418 535.511" stroke="#58B3A2" stroke-miterlimit="10" stroke-linecap="round" stroke-linejoin="round"/>
<path d="M357.547 466.534C367.279 462.395 354.639 437.115 350.724 431.633C349.717 430.179 348.486 428.725 347.368 427.383C346.809 426.712 346.249 426.152 345.69 425.593C343.229 422.908 340.433 420.336 337.636 417.763C337.189 417.315 336.629 416.868 336.182 416.42C333.274 413.848 330.365 411.275 327.569 408.59C327.009 408.031 326.45 407.472 325.891 406.912C324.884 405.906 323.877 404.899 322.871 403.78C321.752 402.55 320.633 401.319 319.627 399.977C319.067 399.418 318.62 398.747 318.172 398.075C316.383 395.838 314.817 393.601 313.251 391.252C312.803 390.581 312.356 390.022 312.02 389.35C310.454 386.889 308.888 384.429 307.322 381.968L306.427 380.513C304.414 377.27 302.4 374.026 300.387 370.782C300.163 370.334 299.827 369.887 299.604 369.439C298.821 368.321 298.038 367.09 297.367 365.972C288.865 353.332 277.903 341.363 263.361 337C275.666 344.047 284.391 356.911 286.181 370.894C287.187 378.164 286.404 385.659 288.865 392.594C291.55 400.425 297.814 406.353 302.624 412.953C310.23 423.468 304.078 430.067 308.553 442.148C316.495 463.737 332.043 456.243 337.972 459.71C342.11 462.73 352.29 468.771 357.547 466.534Z" fill="url(#paint4_linear_0_1)"/>
<path opacity="0.37" d="M307.21 382.303C305.421 382.751 301.282 382.751 300.611 382.751C297.59 382.527 295.13 381.52 292.221 380.625C295.241 381.52 298.485 381.856 301.617 381.52C302.065 381.52 304.526 380.849 306.204 380.849L307.21 382.303Z" fill="#FFF7FB"/>
<path opacity="0.37" d="M299.492 369.775C299.268 369.775 299.156 369.887 299.045 369.887C295.912 370.222 292.669 369.887 289.648 368.992C292.445 369.887 295.018 370.894 298.038 371.005C298.373 371.005 299.268 371.005 300.387 371.005C300.051 370.67 299.716 370.222 299.492 369.775Z" fill="#FFF7FB"/>
<path opacity="0.37" d="M311.908 389.686C310.119 389.91 308.329 390.357 307.881 390.357C304.078 390.693 300.163 390.357 296.584 389.35C300.051 390.357 302.96 391.587 306.651 391.811C307.322 391.811 310.79 391.923 313.251 391.587C312.691 390.916 312.356 390.245 311.908 389.686Z" fill="#FFF7FB"/>
<path opacity="0.37" d="M319.515 400.201C318.956 399.642 318.508 398.97 318.061 398.299C316.271 398.523 314.481 398.97 314.034 398.97C310.23 399.418 306.315 398.97 302.736 397.964C306.203 398.97 309.112 400.201 312.803 400.425C313.363 400.536 317.054 400.536 319.515 400.201Z" fill="#FFF7FB"/>
<path opacity="0.37" d="M327.569 408.702C327.009 408.143 326.45 407.584 325.891 407.024C323.877 407.024 321.193 407.808 320.633 407.808C316.83 408.143 312.915 407.808 309.336 406.801C312.803 407.808 315.712 409.038 319.403 409.262C320.186 409.374 325.443 409.374 327.569 408.702Z" fill="#FFF7FB"/>
<path opacity="0.37" d="M337.636 417.763C336.406 418.769 329.694 418.657 328.799 418.657C325.22 418.434 322.2 417.203 318.732 416.197C322.423 417.315 326.227 417.651 330.03 417.203C330.589 417.091 334.057 416.197 336.182 416.42L337.636 417.763Z" fill="#FFF7FB"/>
<path opacity="0.37" d="M347.256 427.383C345.131 428.278 338.196 428.278 337.077 428.166C332.714 427.942 329.247 426.376 325.22 425.146C329.582 426.488 334.169 426.823 338.643 426.376C339.314 426.264 343.117 425.369 345.578 425.481L347.256 427.383Z" fill="#FFF7FB"/>
<path d="M380 500.105C366.793 494.469 354.036 487.849 341.818 480.334C341.728 480.244 341.638 480.155 341.548 480.065C342.087 480.155 341.009 480.244 341.548 480.065C339.032 475.234 342.357 470.403 343.165 465.304C344.243 458.236 342.357 450.721 337.954 444.995C333.642 439.269 326.904 435.333 319.806 434.349C324.029 437.838 325.826 443.474 326.724 448.842C327.623 454.21 327.713 459.846 329.419 465.035C330.228 467.54 333.103 473.176 336.517 476.755C336.337 476.666 336.068 476.576 335.888 476.487C332.564 474.339 329.33 472.192 326.095 469.866C318.908 464.856 311.99 459.488 305.342 453.852C312.709 456.804 313.607 441.237 311.002 435.064C308.127 428.355 302.198 422.987 295.19 420.75C299.682 430.054 293.573 440.343 299.682 448.931C295.46 445.174 291.327 441.327 287.374 437.301C287.554 437.301 287.643 437.212 287.823 437.212C289.979 436.317 288.632 429.07 288.272 427.281C286.925 419.229 282.522 414.845 278.21 408.493C280.276 411.625 280.546 415.561 280.456 419.319C280.366 423.076 280.007 426.923 281.085 430.502C281.175 430.77 281.265 431.038 281.444 431.396C278.929 428.802 276.503 426.118 274.167 423.434C274.437 423.076 274.706 422.629 274.886 422.181C277.581 416.008 269.945 407.151 265.722 403.573C261.05 399.547 255.48 396.773 250 394C252.605 398.026 253.773 402.768 255.031 407.42C256.289 412.072 257.816 416.724 260.961 420.392C263.656 423.434 270.035 426.923 273.449 424.15C276.593 427.728 279.917 431.307 283.241 434.707C282.792 434.438 282.253 434.259 281.624 433.991C274.886 431.665 267.16 431.038 260.062 431.128C259.164 431.128 256.828 431.486 256.828 431.486C256.828 431.486 258.176 433.543 258.625 434.08C261.41 437.122 264.195 440.253 267.609 442.49C271.023 444.727 275.335 446.069 279.378 445.263C284.319 444.19 287.194 440.611 286.026 437.569C294.561 446.069 303.545 454.12 313.068 461.546C312.709 461.367 312.35 461.099 312.08 460.92C309.924 459.309 307.858 457.52 305.612 455.999C294.831 448.842 279.737 448.842 268.956 455.91C270.124 455.105 280.276 459.488 282.073 460.025C286.655 461.278 291.237 462.441 295.909 463.514C300.67 464.588 305.432 465.393 310.193 466.198C311.631 466.377 318.728 467.987 319.178 466.288C321.244 467.809 323.31 469.329 325.377 470.761C327.173 472.013 328.97 473.266 330.767 474.429C325.287 472.371 319.447 472.013 313.518 471.834C307.049 471.656 300.581 471.387 294.202 471.208C293.214 471.208 283.511 471.477 283.511 471.477C283.511 471.477 292.854 476.218 293.753 476.666C303.366 482.302 314.416 485.523 325.556 485.97C329.689 486.149 338.673 487.133 341.638 483.465C342.177 482.839 342.357 482.212 342.357 481.676C354.395 489.101 366.883 495.543 379.641 501L380 500.105Z" fill="url(#paint5_linear_0_1)"/>
<path d="M367.279 466.869C360.791 466.869 349.717 466.534 343.788 459.039C334.056 446.735 336.629 429.396 340.768 419.553C344.012 411.946 346.585 412.841 348.263 406.13C351.171 394.384 344.459 387.225 349.046 380.066C350.947 377.046 355.198 373.355 359.113 374.138C373.767 377.158 379.472 403.333 378.8 426.6C378.353 444.386 372.089 458.368 367.279 466.869Z" fill="url(#paint6_linear_0_1)"/>
<path d="M359.113 374.138C373.767 377.158 379.471 403.333 378.8 426.6C378.353 444.386 372.089 458.256 367.279 466.758C366.831 466.758 366.272 466.758 365.713 466.758C359.113 466.646 349.269 465.863 343.9 458.927C334.168 446.511 336.741 429.285 340.88 419.441C344.124 411.834 346.697 412.729 348.374 406.018C351.283 394.272 344.571 387.113 349.157 379.954C349.269 379.731 349.493 379.395 349.717 379.171C351.73 376.487 355.533 373.467 359.113 374.138Z" fill="#008B8C"/>
<path opacity="0.2" d="M349.605 379.283C353.632 381.409 356.764 385.1 359.001 389.127C364.482 399.082 365.042 411.611 360.344 421.902C359.001 424.922 354.303 437.562 354.303 441.03C354.303 444.721 354.974 448.413 356.093 451.992C357.994 457.585 361.238 462.842 365.601 466.869C359.001 466.758 349.158 465.975 343.788 459.039C334.056 446.623 336.629 429.396 340.768 419.553C344.012 411.946 346.585 412.841 348.263 406.13C351.171 394.384 344.459 387.225 349.046 380.066C349.158 379.842 349.381 379.619 349.605 379.283Z" fill="#80BEAE"/>
<path d="M362.021 419.217C360.567 421.454 350.723 437.674 356.988 455.46C363.14 472.798 395.244 480.74 418.511 482.418" stroke="#58B3A2" stroke-miterlimit="10" stroke-linecap="round" stroke-linejoin="round"/>
<path d="M224.574 233.413L169.459 233.546L114.343 233.413C114.343 233.413 90.2063 256.029 98.4547 313.007C106.703 369.986 144.182 627.832 144.182 627.832H168.166L169.459 513.514L170.751 627.832H194.755C194.755 627.832 232.234 369.967 240.463 313.007C248.692 256.048 224.574 233.413 224.574 233.413Z" fill="#CF7770"/>
<path d="M169.668 523.606C169.288 513.362 169.098 503.099 168.946 492.836C168.794 482.573 168.813 472.33 168.717 462.086C168.622 451.842 168.717 441.579 168.946 431.316L169.212 415.941C169.364 410.809 169.459 405.678 169.668 400.546C169.896 405.678 169.991 410.809 170.143 415.941L170.409 431.316C170.561 441.579 170.542 451.823 170.618 462.086C170.694 472.349 170.618 482.592 170.409 492.836C170.2 503.08 170.067 513.362 169.668 523.606Z" fill="#290920"/>
<path d="M182.021 63.1814H157.999V94.0082H182.021V63.1814Z" fill="#FA9778"/>
<path d="M182.021 68.4268V72.646C178.465 75.0182 174.285 76.2841 170.01 76.2841C165.735 76.2841 161.555 75.0182 157.999 72.646V68.4458C161.557 70.8132 165.736 72.0762 170.01 72.0762C174.284 72.0762 178.463 70.8132 182.021 68.4458V68.4268Z" fill="#290920"/>
<path d="M156.763 84.2776C156.763 84.2776 170.542 101.858 182.915 84.2776C182.915 84.2776 209.332 94.2554 214.806 95.1107C220.279 95.9659 224.65 123.068 224.65 133.331C224.65 143.593 225.354 233.413 225.354 233.413C225.354 233.413 150.586 241.015 114.324 233.413C114.324 233.413 111.93 129.396 118.828 108.738C118.828 108.738 122.63 95.1107 130.764 93.0011C138.898 90.8915 151.841 92.0128 156.763 84.2776Z" fill="#FFDEB0"/>
<path d="M156.364 89.1048C158.472 91.0215 160.801 92.6803 163.301 94.0462C165.678 95.4024 168.357 96.1408 171.093 96.1938C171.731 96.2382 172.371 96.187 172.994 96.0418C173.643 95.9431 174.28 95.7776 174.894 95.5476L176.795 94.7874L178.524 93.6851C179.126 93.3383 179.682 92.9168 180.178 92.4308L181.793 91.0433C182.801 90.0361 183.694 88.9338 184.758 87.9075C184.074 89.1808 183.295 90.4162 182.497 91.7085L181.033 93.362C180.572 93.9562 180.028 94.4811 179.418 94.9205C177.089 96.9695 174.1 98.1099 170.998 98.1324C167.934 98.0826 164.955 97.1161 162.446 95.3576C160.02 93.7015 157.952 91.5752 156.364 89.1048Z" fill="#290920"/>
<path d="M39.2148 71.1448C37.1602 73.9344 36.0305 77.2972 35.984 80.7615C36.2311 84.3155 40.8112 96.2509 40.8112 96.2509L55.2365 95.2437C55.2365 95.2437 52.9177 82.8711 50.8081 80.4955C48.6985 78.1198 44.4793 69.3203 39.2148 71.1448Z" fill="#FA9778"/>
<path d="M110.124 172.12C105.107 165.83 100.222 159.482 94.9197 153.362C93.0192 151.233 91.2515 149.105 89.484 146.938C87.2793 152.013 84.9798 157.486 82.6611 163.321C66.1074 126.412 56.1677 98.3795 54.4952 93.5901C54.4897 93.5142 54.4897 93.438 54.4952 93.362L54.324 92.8679L40.8302 96.2509C42.1986 135.098 53.5258 173.945 67.4378 207.66L67.6278 208.136C69.1211 211.626 71.6256 214.589 74.8184 216.643C78.0111 218.697 81.746 219.748 85.5414 219.66C89.3368 219.572 93.0189 218.349 96.1131 216.15C99.2073 213.95 101.572 210.874 102.902 207.318C103.035 206.976 103.168 206.634 103.282 206.311C106.76 196.808 110.504 187.306 114.476 177.803C113.032 175.845 111.587 173.983 110.124 172.12Z" fill="#FA9778"/>
<path d="M130.764 93.001C130.764 93.001 113.906 97.4863 107.159 107.616C100.412 117.746 84.3527 154.845 84.3527 154.845L107.957 196.999C107.957 196.999 154.654 117.48 130.764 93.001Z" fill="#FFDEB0"/>
<path d="M87.9447 194.338C86.6333 189.225 85.588 184.075 84.5427 178.905C83.4974 173.736 82.6422 168.567 81.806 163.378C81.7871 163.257 81.7921 163.133 81.8211 163.014C81.85 162.895 81.9023 162.783 81.9747 162.684C82.0471 162.585 82.1383 162.502 82.2431 162.438C82.3479 162.375 82.4639 162.332 82.5851 162.314C82.7969 162.287 83.0116 162.333 83.1943 162.443C83.377 162.554 83.5172 162.722 83.5924 162.922C84.8658 166.495 86.1012 170.087 87.2605 173.698C87.8307 175.599 88.4579 177.309 88.9711 179.134C89.4842 180.958 90.0733 182.783 90.5675 184.626C89.7502 182.897 89.0091 181.148 88.2298 179.419C87.4506 177.689 86.7664 175.903 86.0442 174.154C84.5744 170.644 83.1805 167.109 81.8628 163.549L83.6304 163.093C84.5617 168.262 85.3788 173.451 86.1391 178.658C86.8993 183.866 87.5266 189.073 87.9447 194.338Z" fill="#290920"/>
<path d="M38.7207 21.8636L44.4224 16.9982C44.6271 16.8178 44.8907 16.7183 45.1636 16.7183C45.4365 16.7183 45.7001 16.8178 45.9048 16.9982L51.4733 21.8636C53.262 23.4279 54.6959 25.3561 55.6792 27.5194C56.6625 29.6826 57.1725 32.0309 57.1749 34.4071V54.1157C57.1749 55.5321 56.6123 56.8905 55.6108 57.892C54.6092 58.8936 53.2509 59.4562 51.8345 59.4562H38.3407C36.9243 59.4562 35.5658 58.8936 34.5642 57.892C33.5627 56.8905 33.0001 55.5321 33.0001 54.1157V34.4832C32.9916 32.0923 33.4982 29.7276 34.4854 27.55C35.4725 25.3724 36.917 23.4329 38.7207 21.8636Z" fill="#BDDBF2"/>
<path d="M45.0306 86.2541C44.747 86.2541 44.4661 86.1979 44.2043 86.0888C43.9425 85.9797 43.7049 85.8198 43.5052 85.6184C43.3056 85.4169 43.1478 85.1779 43.041 84.9152C42.9342 84.6524 42.8805 84.3711 42.883 84.0875V39.3108C42.8805 39.028 42.9342 38.7476 43.0412 38.4859C43.1483 38.2242 43.3062 37.9865 43.5062 37.7865C43.7061 37.5866 43.9439 37.4285 44.2056 37.3215C44.4674 37.2145 44.7479 37.1606 45.0306 37.1632C45.3143 37.1607 45.5954 37.2144 45.8582 37.3212C46.1209 37.428 46.3599 37.5857 46.5614 37.7854C46.7628 37.9851 46.9228 38.2227 47.0319 38.4845C47.141 38.7463 47.1971 39.0271 47.1971 39.3108V84.0875C47.1971 84.6621 46.9689 85.2132 46.5625 85.6195C46.1562 86.0258 45.6053 86.2541 45.0306 86.2541Z" fill="#42A3E8"/>
<path d="M47.2731 68.8262H42.7879C41.9587 68.8262 41.2864 69.4984 41.2864 70.3276V89.0669C41.2864 89.8962 41.9587 90.5683 42.7879 90.5683H47.2731C48.1023 90.5683 48.7746 89.8962 48.7746 89.0669V70.3276C48.7746 69.4984 48.1023 68.8262 47.2731 68.8262Z" fill="#004B80"/>
<path d="M43.0159 65.177C43.0159 65.177 37.9606 63.5616 39.0819 66.9255C39.0819 66.9255 36.402 68.541 38.7207 72.3421C38.2291 72.6292 37.8108 73.0262 37.4983 73.502C37.1858 73.9779 36.9878 74.5196 36.9197 75.0847C36.8516 75.6499 36.9153 76.2231 37.1057 76.7596C37.2962 77.296 37.6082 77.7811 38.0175 78.1768C38.0175 78.1768 42.94 80.5524 44.0613 78.3098C45.1826 76.0671 42.1608 73.5964 42.1608 73.5964C42.1608 73.5964 45.1066 75.782 45.9619 74.5847C46.8171 73.3874 44.8974 69.3202 44.8974 69.3202C44.8974 69.3202 47.4252 69.6623 47.5773 68.0469C47.7293 66.4314 43.0159 65.177 43.0159 65.177Z" fill="#FA9778"/>
<path d="M51.8536 83.0232C51.8536 83.0232 50.5802 72.4752 47.7674 72.1902C46.1519 72.0381 46.3039 75.8772 46.722 79.1651C46.8031 79.7544 47.0012 80.3216 47.3045 80.8334C47.6078 81.3451 48.0102 81.7911 48.4882 82.1451C48.9662 82.4992 49.5101 82.7543 50.088 82.8953C50.666 83.0363 51.2662 83.0604 51.8536 82.9662V83.0232Z" fill="#FA9778"/>
<path d="M225.734 219.881L208.097 201.788L197.682 89.3518L187.571 85.4177L183.352 132.931H158.531L154.312 85.4177L144.182 89.3518L133.786 201.788L116.149 219.881C113.402 222.7 111.855 226.474 111.834 230.41L111.017 397.429H230.865L230.048 230.41C230.027 226.474 228.48 222.7 225.734 219.881Z" fill="#FF4313"/>
<path d="M114.077 390.569C123.276 390.189 132.455 389.998 141.635 389.846C150.815 389.694 160.013 389.694 169.193 389.618C178.372 389.542 187.571 389.618 196.751 389.846L210.53 390.113C215.129 390.265 219.728 390.36 224.308 390.569C219.728 390.797 215.129 390.873 210.53 391.044L196.751 391.31C187.571 391.462 178.391 391.443 169.193 391.519C159.994 391.595 150.834 391.519 141.635 391.291C132.436 391.063 123.276 390.968 114.077 390.569Z" fill="#582949"/>
<path d="M180.045 190.119C179.813 179.766 177.707 169.54 173.83 159.938C171.83 155.144 169.231 150.623 166.095 146.482C162.864 142.38 159.017 138.802 154.692 135.877L155.224 135.003C159.808 137.796 163.925 141.291 167.425 145.361C170.892 149.478 173.811 154.027 176.111 158.893C178.384 163.78 180.191 168.87 181.508 174.097C182.855 179.348 183.72 184.711 184.093 190.119H180.045Z" fill="#56B19A"/>
<path d="M201.863 141.256C200.365 142.902 199.023 144.683 197.853 146.577C195.434 150.572 193.422 154.8 191.847 159.197C190.232 163.555 188.849 167.996 187.704 172.5C186.526 177.024 185.537 181.509 184.739 186.184L189.718 186.793C190.137 182.364 190.802 177.822 191.619 173.375C192.417 168.889 193.451 164.448 194.717 160.071C195.923 155.723 197.566 151.507 199.62 147.489C200.579 145.621 201.718 143.852 203.022 142.206C202.613 141.918 202.225 141.601 201.863 141.256Z" fill="#56B19A"/>
<path d="M202.623 181.186H164.974C163.767 181.186 162.788 182.165 162.788 183.372V189.415C162.788 190.622 163.767 191.601 164.974 191.601H202.623C203.83 191.601 204.809 190.622 204.809 189.415V183.372C204.809 182.165 203.83 181.186 202.623 181.186Z" fill="white"/>
<path d="M199.829 185.823H167.805C166.745 185.823 165.886 186.683 165.886 187.743V213.59C165.886 214.65 166.745 215.51 167.805 215.51H199.829C200.89 215.51 201.749 214.65 201.749 213.59V187.743C201.749 186.683 200.89 185.823 199.829 185.823Z" fill="white"/>
<path d="M156.44 136.086C156.44 136.086 139.088 115.18 130.859 120.008C122.629 124.835 149.75 136.086 156.44 136.086Z" fill="#56B19A"/>
<path d="M161.838 141.351C161.838 141.351 155.661 118.088 163.491 116.549C171.321 115.009 161.838 141.351 161.838 141.351Z" fill="#56B19A"/>
<path d="M162.75 141.218C162.75 141.218 135.952 140.248 136.142 148.421C136.389 158.95 162.75 141.218 162.75 141.218Z" fill="#56B19A"/>
<path d="M169.668 149.58C169.668 149.58 160.678 128.674 172.234 122.326C178.144 119.114 169.668 149.58 169.668 149.58Z" fill="#56B19A"/>
<path d="M169.421 148.288C169.421 148.288 144.22 152.279 145.379 158.703C146.538 165.126 163.757 162.162 169.421 148.288Z" fill="#56B19A"/>
<path d="M174.932 158.95C174.932 158.95 175.578 129.529 181.242 130.936C186.906 132.342 181.622 152.792 174.932 158.95Z" fill="#56B19A"/>
<path d="M177.118 164.993C177.118 164.993 153.855 165.773 154.502 173.603C155.148 181.433 177.118 164.993 177.118 164.993Z" fill="#56B19A"/>
<path d="M178.923 171.417C178.923 171.417 178.277 153.039 184.625 151.499C190.973 149.96 178.923 171.417 178.923 171.417Z" fill="#56B19A"/>
<path d="M199.487 146.368C199.487 146.368 214.691 139.545 219.671 143.783C224.65 148.022 202.186 148.554 199.487 146.368Z" fill="#56B19A"/>
<path d="M195.496 153.818C195.496 153.818 216.193 146.482 219.538 151.5C222.883 156.517 201.027 158.304 195.496 153.818Z" fill="#56B19A"/>
<path d="M199.487 146.102C199.487 146.102 201.388 131.449 194.337 128.75C187.286 126.051 192.93 144.563 199.487 146.102Z" fill="#56B19A"/>
<path d="M195.496 153.818C195.496 153.818 191.695 138.785 186.754 139.545C181.812 140.305 190.745 154.845 195.496 153.818Z" fill="#56B19A"/>
<path d="M190.365 169.745C190.365 169.745 208.743 155.091 216.326 161.401C223.909 167.711 195.249 171.284 190.365 169.745Z" fill="#56B19A"/>
<path d="M167.292 190.537C177.548 189.27 187.92 189.27 198.176 190.537C193.061 191.223 187.904 191.54 182.744 191.487C177.577 191.53 172.414 191.213 167.292 190.537Z" fill="#290920"/>
<path d="M301.489 166.096L301.261 165.849C288.699 151.918 276.288 139.773 265.322 129.738L240.615 154.445C249.129 162.047 257.416 169.65 265.322 177.461C231.454 187.838 208.306 193.045 208.306 193.045L210.206 206.862C236.514 208.489 262.921 206.571 288.718 201.161L290.067 200.894C293.702 200.137 297.074 198.435 299.842 195.96C302.61 193.485 304.677 190.324 305.835 186.796C306.993 183.268 307.201 179.497 306.438 175.863C305.675 172.229 303.968 168.86 301.489 166.096Z" fill="#FA9778"/>
<path d="M210.719 206.672C210.719 206.672 191.847 214.274 185.537 212.849C184.131 212.545 186.506 210.948 190.003 209.447C190.003 209.447 180.235 210.511 179.075 210.093C177.916 209.675 191.657 205.152 191.657 205.152C191.657 205.152 176.453 207.565 175.711 206.406C174.97 205.247 189.205 201.598 189.205 201.598C189.205 201.598 177.004 203.498 176.32 202.282C175.635 201.065 192.512 197.036 192.512 197.036C192.512 197.036 186.811 192.798 188.464 191.639C190.118 190.479 197.035 192.285 199.582 193.387C202.129 194.49 212.411 192.342 212.411 192.342L210.719 206.672Z" fill="#FA9778"/>
<path d="M203.859 91.8796H203.573V128.883C218.094 145.304 240.938 165.716 246.583 163.264C255.002 159.615 277.219 139.659 277.219 139.659C242.573 96.9351 203.859 91.8796 203.859 91.8796Z" fill="#FFDEB0"/>
<path d="M281.325 178.658C279.918 178.81 278.493 178.81 277.086 178.905H272.848C270.036 178.905 267.147 178.772 264.41 178.62C264.163 178.601 263.933 178.488 263.766 178.304C263.6 178.12 263.511 177.88 263.517 177.632C263.527 177.444 263.592 177.263 263.703 177.111C263.814 176.959 263.967 176.843 264.144 176.777C269.106 174.925 274.185 173.401 279.348 172.216C274.613 174.646 269.724 176.767 264.714 178.563L264.448 176.663C267.261 176.834 270.149 177.043 272.867 177.347C274.274 177.48 275.661 177.67 277.067 177.86C278.474 178.05 279.937 178.297 281.325 178.658Z" fill="#290920"/>
<path d="M195.059 37.8283C193.935 37.5975 192.771 37.6564 191.676 37.9993V32.7728C191.676 27.0266 189.393 21.5158 185.33 17.4526C181.267 13.3894 175.756 11.1067 170.01 11.1067C167.164 11.1042 164.345 11.6629 161.716 12.7508C159.086 13.8388 156.697 15.4346 154.684 17.447C152.672 19.4594 151.076 21.8488 149.988 24.4786C148.9 27.1084 148.341 29.9269 148.344 32.7728V37.9993C147.219 37.6459 146.021 37.5917 144.869 37.8421C143.717 38.0925 142.65 38.6389 141.773 39.4274C140.896 40.2159 140.24 41.2193 139.869 42.3386C139.498 43.4579 139.426 44.6546 139.658 45.8105C140.399 49.4786 144.6 54.9331 148.268 54.1919C148.406 54.165 148.54 54.1203 148.667 54.0589C149.528 59.0952 152.143 63.6646 156.049 66.9585C159.955 70.2523 164.9 72.0584 170.01 72.057C175.116 72.0539 180.057 70.2458 183.959 66.9523C187.861 63.6589 190.473 59.092 191.334 54.0589C191.468 54.1177 191.608 54.1622 191.752 54.1919C195.42 54.9331 199.62 49.4786 200.362 45.8105C200.715 44.0491 200.355 42.2196 199.36 40.7232C198.366 39.2269 196.82 38.1858 195.059 37.8283Z" fill="#FA9778"/>
<path d="M142.433 42.3898C143.172 42.2281 143.937 42.2281 144.676 42.3898C145.434 42.5219 146.159 42.8064 146.804 43.226C147.471 43.6618 148.004 44.2736 148.344 44.9935C148.684 45.6888 148.803 46.4712 148.686 47.2362C148.436 46.5607 148.097 45.9215 147.679 45.3356C147.275 44.821 146.794 44.3722 146.253 44.0052C145.056 43.3018 143.772 42.7586 142.433 42.3898Z" fill="#290920"/>
<path d="M145.208 49.6688C144.853 49.1984 144.612 48.6518 144.505 48.0723C144.381 47.4768 144.381 46.8623 144.505 46.2668C144.658 45.6517 144.98 45.092 145.436 44.6514C145.88 44.2362 146.447 43.9761 147.051 43.9102C146.665 44.2848 146.327 44.7062 146.044 45.1645C145.798 45.5794 145.612 46.0274 145.493 46.4949C145.295 47.541 145.199 48.6041 145.208 49.6688Z" fill="#290920"/>
<path d="M197.53 42.3897C196.196 42.7644 194.918 43.314 193.729 44.0242C193.182 44.3908 192.694 44.8395 192.284 45.3546C191.873 45.9451 191.535 46.5832 191.277 47.2551C191.172 46.4902 191.29 45.7112 191.619 45.0124C191.965 44.2962 192.496 43.6859 193.158 43.245C193.81 42.8229 194.541 42.5384 195.306 42.4087C196.037 42.2405 196.796 42.2341 197.53 42.3897Z" fill="#290920"/>
<path d="M194.755 49.6688C194.764 48.6041 194.668 47.541 194.47 46.4949C194.357 46.0282 194.178 45.5801 193.938 45.1645C193.642 44.7103 193.298 44.2897 192.911 43.9102C193.517 43.972 194.085 44.2327 194.527 44.6514C194.988 45.0873 195.312 45.6489 195.458 46.2668C195.591 46.8613 195.591 47.4779 195.458 48.0723C195.356 48.6535 195.115 49.2013 194.755 49.6688Z" fill="#290920"/>
<path d="M186.887 52.6145C186.887 53.7421 186.553 54.8445 185.926 55.7821C185.3 56.7198 184.409 57.4505 183.367 57.8821C182.325 58.3136 181.179 58.4265 180.073 58.2065C178.967 57.9865 177.951 57.4435 177.154 56.6461C176.356 55.8487 175.813 54.8328 175.593 53.7268C175.373 52.6208 175.486 51.4744 175.918 50.4326C176.349 49.3907 177.08 48.5003 178.018 47.8738C178.955 47.2473 180.057 46.9128 181.185 46.9128C182.697 46.9128 184.148 47.5135 185.217 48.5828C186.286 49.6521 186.887 51.1023 186.887 52.6145Z" fill="#FA7C55"/>
<path d="M164.346 52.6145C164.346 53.7421 164.012 54.8445 163.385 55.7821C162.759 56.7198 161.868 57.4505 160.827 57.8821C159.785 58.3136 158.639 58.4265 157.533 58.2065C156.426 57.9865 155.41 57.4435 154.613 56.6461C153.816 55.8487 153.273 54.8328 153.053 53.7268C152.833 52.6208 152.946 51.4744 153.377 50.4326C153.809 49.3907 154.54 48.5003 155.477 47.8738C156.415 47.2473 157.517 46.9128 158.645 46.9128C160.157 46.9128 161.607 47.5135 162.676 48.5828C163.746 49.6521 164.346 51.1023 164.346 52.6145Z" fill="#FA7C55"/>
<path d="M164.46 52.8616C166.052 53.7718 167.81 54.3534 169.63 54.572C170.492 54.637 171.357 54.5004 172.157 54.1729C173.023 53.8335 173.846 53.3933 174.609 52.8616C174.155 53.769 173.458 54.5323 172.595 55.0662C171.689 55.6391 170.623 55.9056 169.554 55.8264C168.537 55.7457 167.551 55.4373 166.67 54.9241C165.788 54.4109 165.033 53.706 164.46 52.8616Z" fill="#290920"/>
<path d="M169.44 38.7217C169.632 39.7963 169.759 40.8816 169.82 41.9716C169.895 42.5457 169.895 43.127 169.82 43.7011C169.685 44.287 169.44 44.8418 169.097 45.3355C168.489 46.2668 167.615 47.0651 167.596 47.8443C167.577 48.6235 168.565 49.4977 169.497 49.9729C168.898 49.9495 168.321 49.7416 167.844 49.3776C167.368 49.0136 167.016 48.5112 166.836 47.9393C166.787 47.6056 166.806 47.2655 166.891 46.9391C166.976 46.6127 167.125 46.3066 167.33 46.0388C167.634 45.5636 167.976 45.1265 168.261 44.7084C168.818 43.8749 169.122 42.8979 169.136 41.8956C169.183 40.8332 169.285 39.7739 169.44 38.7217Z" fill="#290920"/>
<path d="M154.958 36.384C155.584 35.6127 156.352 34.9677 157.219 34.4834C158.084 33.9628 159.038 33.6082 160.032 33.4381C162.003 33.0201 164.057 33.2954 165.848 34.2173C166.078 34.3327 166.259 34.5277 166.357 34.7662C166.454 35.0047 166.462 35.2705 166.378 35.5143C166.295 35.758 166.126 35.9632 165.902 36.0917C165.679 36.2201 165.416 36.2632 165.164 36.2129C164.346 36.0609 163.567 35.8898 162.788 35.7948C162.008 35.6774 161.218 35.6456 160.431 35.6998C158.832 35.8318 157.293 36.3752 155.965 37.2772C155.826 37.3741 155.654 37.4124 155.487 37.384C155.32 37.3555 155.171 37.2626 155.072 37.1252C154.975 37.0304 154.912 36.907 154.892 36.7735C154.871 36.6399 154.894 36.5033 154.958 36.384Z" fill="#3C0525"/>
<path d="M161.99 45.4874C163.333 45.4874 164.422 44.3983 164.422 43.0548C164.422 41.7112 163.333 40.6221 161.99 40.6221C160.646 40.6221 159.557 41.7112 159.557 43.0548C159.557 44.3983 160.646 45.4874 161.99 45.4874Z" fill="#3C0525"/>
<path d="M183.181 37.2391C182.512 36.7919 181.79 36.4282 181.033 36.1558C180.283 35.8971 179.505 35.7311 178.714 35.6617C177.934 35.6078 177.15 35.6397 176.377 35.7567C175.598 35.8517 174.818 36.0228 173.982 36.1748C173.729 36.2252 173.467 36.1821 173.243 36.0536C173.02 35.9251 172.851 35.72 172.767 35.4762C172.684 35.2324 172.692 34.9666 172.789 34.7281C172.887 34.4896 173.067 34.2946 173.298 34.1793C175.088 33.2558 177.143 32.9805 179.113 33.4C180.101 33.5737 181.048 33.9281 181.907 34.4453C182.785 34.9228 183.56 35.5686 184.188 36.3459C184.271 36.4683 184.309 36.6154 184.297 36.7627C184.284 36.9099 184.222 37.0485 184.119 37.1552C184.017 37.2619 183.881 37.3303 183.735 37.3491C183.588 37.3678 183.439 37.3357 183.314 37.2581L183.181 37.2391Z" fill="#3C0525"/>
<path d="M174.666 43.0548C174.666 43.5359 174.809 44.0062 175.076 44.4063C175.344 44.8064 175.723 45.1182 176.168 45.3023C176.613 45.4864 177.102 45.5346 177.573 45.4407C178.045 45.3468 178.479 45.1152 178.819 44.7749C179.159 44.4347 179.391 44.0013 179.485 43.5294C179.579 43.0575 179.531 42.5683 179.346 42.1238C179.162 41.6793 178.85 41.2994 178.45 41.0321C178.05 40.7648 177.58 40.6221 177.099 40.6221C176.454 40.6221 175.835 40.8784 175.379 41.3346C174.923 41.7908 174.666 42.4096 174.666 43.0548Z" fill="#3C0525"/>
<path d="M153.532 32.2786C153.532 32.2786 153.114 41.7813 151.632 41.9714C150.149 42.1614 148.534 38.4744 148.534 38.4744C145.151 36.5738 141.369 39.7287 141.369 39.7287C135.876 29.8839 140.38 23.7072 140.38 23.7072C140.38 23.7072 135.325 7.11548 151.632 1.22381C167.938 -4.66786 193.938 12.627 193.938 12.627C202.509 18.9558 199.639 41.1351 199.639 41.1351C198.825 39.8312 197.614 38.8229 196.184 38.2585C194.754 37.694 193.18 37.6031 191.695 37.9992C191.695 37.9992 189.376 43.7009 187.4 43.1117C185.423 42.5225 185.993 33.3999 185.993 33.3999C185.993 33.3999 171.53 32.9818 163.377 26.653L153.532 32.2786Z" fill="#3C0525"/>
<defs>
<linearGradient id="paint0_linear_0_1" x1="355" y1="143" x2="355" y2="258" gradientUnits="userSpaceOnUse">
<stop stop-color="#80BEAE"/>
<stop offset="1" stop-color="#009494" stop-opacity="0"/>
</linearGradient>
<linearGradient id="paint1_linear_0_1" x1="80.7157" y1="387.478" x2="-91.8506" y2="534.599" gradientUnits="userSpaceOnUse">
<stop stop-color="#56B19A"/>
<stop offset="1" stop-color="#1F9E96"/>
</linearGradient>
<linearGradient id="paint2_linear_0_1" x1="0.5" y1="367" x2="0.5" y2="497" gradientUnits="userSpaceOnUse">
<stop stop-color="#80BEAE"/>
<stop offset="1" stop-color="#009494" stop-opacity="0"/>
</linearGradient>
<linearGradient id="paint3_linear_0_1" x1="-18.8377" y1="474.97" x2="73.9587" y2="474.97" gradientUnits="userSpaceOnUse">
<stop stop-color="#0E655F"/>
<stop offset="1" stop-color="#22B94D"/>
</linearGradient>
<linearGradient id="paint4_linear_0_1" x1="270.478" y1="367.284" x2="417.599" y2="539.851" gradientUnits="userSpaceOnUse">
<stop stop-color="#56B19A"/>
<stop offset="1" stop-color="#1F9E96"/>
</linearGradient>
<linearGradient id="paint5_linear_0_1" x1="250" y1="447.5" x2="380" y2="447.5" gradientUnits="userSpaceOnUse">
<stop stop-color="#80BEAE"/>
<stop offset="1" stop-color="#009494" stop-opacity="0"/>
</linearGradient>
<linearGradient id="paint6_linear_0_1" x1="357.97" y1="466.838" x2="357.97" y2="374.041" gradientUnits="userSpaceOnUse">
<stop stop-color="#0E655F"/>
<stop offset="1" stop-color="#22B94D"/>
</linearGradient>
</defs>
</svg>
