<svg width="111" height="117" viewBox="0 0 111 117" fill="none" xmlns="http://www.w3.org/2000/svg">
<path d="M-18.5336 107.547C-14.3948 117.279 10.8855 104.639 16.3666 100.724C17.8208 99.7168 19.275 98.4863 20.6173 97.3677C21.2884 96.8084 21.8477 96.2491 22.407 95.6899C25.0917 93.2289 27.6644 90.4324 30.2372 87.636C30.6847 87.1885 31.1321 86.6292 31.5795 86.1818C34.1523 83.2734 36.7251 80.3651 39.4097 77.5686C39.969 77.0093 40.5283 76.45 41.0876 75.8907C42.0944 74.8839 43.1011 73.8772 44.2197 72.8705C45.4501 71.7519 46.6806 70.6333 48.0229 69.6265C48.5822 69.0672 49.2534 68.6198 49.9245 68.1724C52.1617 66.3826 54.3989 64.8166 56.748 63.2505C57.4191 62.8031 57.9784 62.3557 58.6496 62.0201C61.1105 60.454 63.5714 58.888 66.0323 57.322L67.4865 56.4271C70.7305 54.4136 73.9744 52.4001 77.2183 50.3867C77.6658 50.1629 78.1132 49.8274 78.5606 49.6036C79.6792 48.8206 80.9097 48.0376 82.0283 47.3664C94.6684 38.8651 106.637 27.9029 111 13.3611C103.953 25.6657 91.0889 34.3907 77.1065 36.1805C69.8356 37.1872 62.341 36.4042 55.4057 38.8651C47.5755 41.5497 41.6469 47.8139 35.0472 52.6238C24.5324 60.2303 17.9326 54.078 5.85179 58.5524C-15.7371 66.4945 -8.24254 82.043 -11.7102 87.9715C-14.7304 92.1103 -20.7708 102.29 -18.5336 107.547Z" fill="url(#paint0_linear_11_13)"/>
<path opacity="0.37" d="M65.6967 57.2101C65.2493 55.4204 65.2493 51.2816 65.2493 50.6104C65.473 47.5902 66.4797 45.1293 67.3746 42.2209C66.4797 45.2412 66.1441 48.4851 66.4797 51.6172C66.4797 52.0646 67.1509 54.5255 67.1509 56.2034L65.6967 57.2101Z" fill="#FFF7FB"/>
<path opacity="0.37" d="M78.2251 49.4919C78.2251 49.2681 78.1132 49.1563 78.1132 49.0444C77.7776 45.9123 78.1132 42.6684 79.0081 39.6482C78.1132 42.4447 77.1065 45.0175 76.9946 48.0377C76.9946 48.3733 76.9946 49.2681 76.9946 50.3867C77.3302 50.0511 77.7776 49.7156 78.2251 49.4919Z" fill="#FFF7FB"/>
<path opacity="0.37" d="M58.3141 61.9083C58.0904 60.1185 57.643 58.3288 57.643 57.8813C57.3074 54.0781 57.643 50.163 58.6497 46.5835C57.643 50.0511 56.4125 52.9595 56.1888 56.6509C56.1888 57.322 56.0769 60.7897 56.4125 63.2506C57.0837 62.6913 57.7548 62.3557 58.3141 61.9083Z" fill="#FFF7FB"/>
<path opacity="0.37" d="M47.7992 69.5148C48.3585 68.9555 49.0296 68.5081 49.7008 68.0606C49.4771 66.2709 49.0296 64.4811 49.0296 64.0337C48.5822 60.2304 49.0296 56.3154 50.0364 52.7358C49.0296 56.2035 47.7992 59.1118 47.5754 62.8032C47.4636 63.3625 47.4636 67.0539 47.7992 69.5148Z" fill="#FFF7FB"/>
<path opacity="0.37" d="M39.2977 77.5686C39.857 77.0093 40.4163 76.45 40.9756 75.8907C40.9756 73.8772 40.1926 71.1926 40.1926 70.6333C39.857 66.8301 40.1926 62.915 41.1993 59.3354C40.1926 62.8031 38.9622 65.7115 38.7384 69.4028C38.6266 70.1858 38.6266 75.4433 39.2977 77.5686Z" fill="#FFF7FB"/>
<path opacity="0.37" d="M30.2373 87.636C29.2306 86.4055 29.3424 79.6939 29.3424 78.7991C29.5662 75.2196 30.7966 72.1993 31.8034 68.7317C30.6848 72.4231 30.3492 76.2263 30.7966 80.0295C30.9085 80.5888 31.8034 84.0565 31.5796 86.1818L30.2373 87.636Z" fill="#FFF7FB"/>
<path opacity="0.37" d="M20.6173 97.2561C19.7224 95.1308 19.7224 88.1954 19.8343 87.0768C20.058 82.7143 21.624 79.2467 22.8545 75.2197C21.5121 79.5823 21.1766 84.1685 21.624 88.6429C21.7359 89.3141 22.6307 93.1173 22.5189 95.5782L20.6173 97.2561Z" fill="#FFF7FB"/>
<path d="M-52.1054 130C-46.4691 116.793 -39.8487 104.036 -32.3336 91.8176C-32.2441 91.7277 -32.1547 91.6379 -32.0652 91.548C-32.1547 92.0871 -32.2441 91.009 -32.0652 91.548C-27.2341 89.0325 -22.403 92.3566 -17.3035 93.1652C-10.2358 94.2433 -2.72074 92.3566 3.00502 87.9544C8.73077 83.642 12.6672 76.9039 13.6513 69.8065C10.1622 74.029 4.52592 75.8258 -0.841973 76.7243C-6.20987 77.6227 -11.8462 77.7125 -17.0351 79.4195C-19.5401 80.2281 -25.1764 83.103 -28.755 86.5169C-28.6656 86.3372 -28.5761 86.0677 -28.4866 85.888C-26.3395 82.5639 -24.1923 79.3296 -21.8662 76.0954C-16.8562 68.9081 -11.4883 61.9903 -5.852 55.3421C-8.80435 62.709 6.76254 63.6075 12.9356 61.0021C19.6455 58.1272 25.0134 52.1976 27.25 45.19C17.9457 49.6821 7.65719 43.5729 -0.931436 49.6821C2.82609 45.4596 6.67308 41.3269 10.699 37.3739C10.699 37.5536 10.7885 37.6434 10.7885 37.8231C11.6831 39.9793 18.9298 38.6316 20.7191 38.2723C28.7709 36.9247 33.1547 32.5225 39.5067 28.2101C36.3754 30.2764 32.439 30.546 28.6814 30.4561C24.9239 30.3663 21.0769 30.0069 17.4983 31.085C17.2299 31.1748 16.9615 31.2647 16.6037 31.4444C19.1982 28.9288 21.8821 26.5031 24.5661 24.1672C24.9239 24.4368 25.3712 24.7063 25.8186 24.886C31.9916 27.5812 40.8487 19.9447 44.4273 15.7222C48.4532 11.0504 51.2266 5.4803 54 0C49.9741 2.60539 45.2324 3.77332 40.5803 5.0311C35.9281 6.28887 31.2759 7.81617 27.6079 10.9606C24.5661 13.6558 21.0769 20.0346 23.8503 23.4485C20.2717 26.5929 16.6931 29.9171 13.2935 33.2412C13.5619 32.792 13.7408 32.2529 14.0092 31.624C16.3353 24.886 16.9615 17.1596 16.8721 10.0622C16.8721 9.16378 16.5142 6.82792 16.5142 6.82792C16.5142 6.82792 14.4565 8.17553 13.9197 8.62474C10.8779 11.4098 7.74666 14.1949 5.51004 17.6088C3.27341 21.0228 1.93144 25.3352 2.73662 29.378C3.8102 34.3193 7.3888 37.1942 10.4306 36.0263C1.93144 44.5612 -6.1204 53.5453 -13.546 63.0684C-13.3671 62.7091 -13.0987 62.3497 -12.9197 62.0802C-11.3094 59.924 -9.52007 57.8576 -7.99916 55.6116C-0.841973 44.8307 -0.841971 29.7374 -7.9097 18.9565C-7.10451 20.1244 -11.4883 30.2764 -12.0251 32.0732C-13.2776 36.6551 -14.4406 41.237 -15.5142 45.9088C-16.5878 50.6703 -17.393 55.4319 -18.1982 60.1935C-18.3771 61.6309 -19.9875 68.7284 -18.2876 69.1776C-19.8085 71.2439 -21.3294 73.3103 -22.7609 75.3766C-24.0134 77.1735 -25.2659 78.9703 -26.4289 80.7671C-24.3712 75.2868 -24.0134 69.4471 -23.8344 63.5176C-23.6555 57.0491 -23.3871 50.5805 -23.2082 44.2018C-23.2082 43.2135 -23.4766 33.5107 -23.4766 33.5107C-23.4766 33.5107 -28.2182 42.8542 -28.6656 43.7526C-34.3018 53.3656 -37.5226 64.416 -37.9699 75.5563C-38.1488 79.689 -39.1329 88.6731 -35.4649 91.6379C-34.8386 92.1769 -34.2124 92.3566 -33.6756 92.3566C-41.1012 104.395 -47.5426 116.883 -53 129.641L-52.1054 130Z" fill="url(#paint1_linear_11_13)"/>
<path d="M-18.8695 117.279C-18.8695 110.791 -18.5339 99.7169 -11.0393 93.7884C1.26525 84.0566 18.6035 86.6294 28.4472 90.7682C36.0536 94.0121 35.1588 96.5849 41.8703 98.2628C53.6156 101.171 60.7746 94.4595 67.9337 99.0458C70.9539 100.947 74.6452 105.198 73.8622 109.113C70.842 123.767 44.6668 129.472 21.4 128.8C3.6143 128.353 -10.3682 122.089 -18.8695 117.279Z" fill="url(#paint2_linear_11_13)"/>
<path d="M73.8624 109.113C70.8422 123.767 44.667 129.472 21.4002 128.8C3.6145 128.353 -10.2561 122.089 -18.7574 117.279C-18.7574 116.831 -18.7574 116.272 -18.7574 115.713C-18.6456 109.113 -17.8626 99.2695 -10.9273 93.9002C1.48917 84.1684 18.7156 86.7412 28.5592 90.88C36.1657 94.1239 35.2708 96.6967 41.9824 98.3746C53.7277 101.283 60.8867 94.5714 68.0457 99.1576C68.2694 99.2695 68.605 99.4932 68.8287 99.7169C71.5134 101.73 74.5336 105.534 73.8624 109.113Z" fill="#008B8C"/>
<path opacity="0.2" d="M68.7167 99.6051C66.5913 103.632 62.9 106.764 58.873 109.001C48.9175 114.482 36.3892 115.042 26.0981 110.344C23.0779 109.001 10.4378 104.303 6.9701 104.303C3.27873 104.303 -0.412649 104.974 -3.99216 106.093C-9.58515 107.995 -14.8426 111.239 -18.8695 115.601C-18.7576 109.001 -17.9746 99.1576 -11.0393 93.7884C1.37711 84.0566 18.6035 86.6294 28.4472 90.7682C36.0536 94.0121 35.1588 96.5849 41.8703 98.2628C53.6156 101.171 60.7746 94.4595 67.9337 99.0458C68.1574 99.1576 68.3811 99.3814 68.7167 99.6051Z" fill="#80BEAE"/>
<path d="M28.7828 112.021C26.5456 110.567 10.3259 100.724 -7.45977 106.988C-24.798 113.14 -32.7401 145.244 -34.418 168.511" stroke="#58B3A2" stroke-miterlimit="10" stroke-linecap="round" stroke-linejoin="round"/>
<defs>
<linearGradient id="paint0_linear_11_13" x1="80.7157" y1="20.4776" x2="-91.8506" y2="167.599" gradientUnits="userSpaceOnUse">
<stop stop-color="#56B19A"/>
<stop offset="1" stop-color="#1F9E96"/>
</linearGradient>
<linearGradient id="paint1_linear_11_13" x1="0.5" y1="0" x2="0.5" y2="130" gradientUnits="userSpaceOnUse">
<stop stop-color="#80BEAE"/>
<stop offset="1" stop-color="#009494" stop-opacity="0"/>
</linearGradient>
<linearGradient id="paint2_linear_11_13" x1="-18.8377" y1="107.97" x2="73.9587" y2="107.97" gradientUnits="userSpaceOnUse">
<stop stop-color="#0E655F"/>
<stop offset="1" stop-color="#22B94D"/>
</linearGradient>
</defs>
</svg>
